<svg data-name="Layer 1" xmlns="http://www.w3.org/2000/svg" viewBox="0 0 108.5 91.1">
  <path d="M47.2 28.7a18.4 18.4 0 11-18.5-18.4 18.4 18.4 0 0118.5 18.4z" fill="#ffc800"/>
  <g id="sun">
  <g fill="#ffc800">
    <path d="M44.3 41.8a20.4 20.4 0 003.5-6 30 30 0 015.8 7.3 30 30 0 01-9.3-1.3z"/>
    <path d="M35.7 47.9a20.6 20.6 0 003.2-1.5 21.5 21.5 0 003-2 31.4 31.4 0 011.2 9.3 31 31 0 01-7.4-5.8z"/>
    <path d="M25.2 48.8a21.4 21.4 0 006 .2l1-.2a30 30 0 01-3.5 8.7 30.5 30.5 0 01-3.5-8.7z"/>
    <path d="M15.7 44.3a20.1 20.1 0 006 3.5 29.7 29.7 0 01-7.4 5.8 30.3 30.3 0 011.3-9.3z"/>
    <path d="M9.6 35.7a19.3 19.3 0 001.5 3.2 22 22 0 002 3A31.5 31.5 0 013.8 43a30.8 30.8 0 015.8-7.4z"/>
    <path d="M8.7 25.2a18.2 18.2 0 00-.3 3.5 24.2 24.2 0 00.1 2.5l.2 1A30.2 30.2 0 010 28.8a30.6 30.6 0 018.7-3.5z"/>
    <path d="M13.2 15.7a5.7 5.7 0 00-.7.8 19.5 19.5 0 00-2.9 5.3A29.8 29.8 0 014 14.4a30 30 0 019.3 1.2z"/>
    <path d="M21.8 9.6a20.8 20.8 0 00-6.1 3.5 31.4 31.4 0 01-1.3-9.3 31.2 31.2 0 017.4 5.8z"/>
    <path d="M32.3 8.7a21.4 21.4 0 00-6-.2l-1 .2A29.9 29.9 0 0128.7 0a30.9 30.9 0 013.5 8.7z"/>
    <path d="M41.8 13.2a20.2 20.2 0 00-6-3.6A30.2 30.2 0 0143 4a30.3 30.3 0 01-1.3 9.3z"/>
    <path d="M47.9 21.8a19.3 19.3 0 00-1.5-3.2 22 22 0 00-2-3 31.5 31.5 0 019.3-1.2 31 31 0 01-5.8 7.4z"/>
    <path d="M48.8 32.3a19.2 19.2 0 00.3-3.5l-.1-2.5c0-.7-.2-1-.2-1a30.2 30.2 0 018.7 3.5 30.5 30.5 0 01-8.7 3.5z"/>
  </g>
  <path d="M47.2 28.7c0 9.2-9.2 18.5-18.5 18.5-23.8 0-23.8-36.8 0-36.9 9.3 0 18.5 9.3 18.5 18.4z" fill="#ffc800"/>
  <g fill="#ffc800">
    <path d="M53.6 43.1a29.7 29.7 0 01-9.3-1.3 20 20 0 003.5-6 30 30 0 015.8 7.3z"/>
    <path d="M43 53.7a31.1 31.1 0 01-7.3-5.8 19.8 19.8 0 003.2-1.5 20.8 20.8 0 003-2 31.6 31.6 0 011.2 9.3z"/>
    <path d="M32.3 48.8a29.6 29.6 0 01-3.6 8.7 30.5 30.5 0 01-3.5-8.7l3.5.3c1.3 0 1.7-.1 2.5-.2l1-.1z"/>
    <path d="M15.7 44.3a20.1 20.1 0 006 3.5 29.7 29.7 0 01-7.4 5.8 30.3 30.3 0 011.3-9.3z"/>
    <path d="M9.6 35.7a19.3 19.3 0 001.5 3.2 22 22 0 002 3A31.5 31.5 0 013.8 43a30.8 30.8 0 015.8-7.4z"/>
    <path d="M8.7 25.2a18.2 18.2 0 00-.3 3.5 24.2 24.2 0 00.1 2.5l.2 1A30.2 30.2 0 010 28.8a30.6 30.6 0 018.7-3.5z"/>
    <path d="M13.2 15.7a5.7 5.7 0 00-.7.8 19.5 19.5 0 00-2.9 5.3A29.8 29.8 0 014 14.4a30 30 0 019.3 1.2z"/>
    <path d="M21.8 9.6a20.8 20.8 0 00-6.1 3.5 31.4 31.4 0 01-1.3-9.3 31.2 31.2 0 017.4 5.8z"/>
    <path d="M32.3 8.7a34.8 34.8 0 00-3.6-.3l-2.4.1c-.8 0-1 .2-1 .2A30 30 0 0128.6.1a.5.5 0 000-.1 30.5 30.5 0 013.6 8.7z"/>
    <path d="M41.8 13.2a20.1 20.1 0 00-6-3.6A30.8 30.8 0 0143 4a29.7 29.7 0 01-1.3 9.3z"/>
    <path d="M53.7 14.4a31.7 31.7 0 01-5.8 7.4 19.1 19.1 0 00-1.5-3.2 23.3 23.3 0 00-2-2.9 31.2 31.2 0 019.3-1.3z"/>
    <path d="M49 28.8a24.5 24.5 0 000-2.5l-.2-1a30 30 0 018.7 3.5 30.3 30.3 0 01-8.7 3.5 19.3 19.3 0 00.3-3.5z"/>
  </g>
  <path d="M32.3 8.7a34.8 34.8 0 00-3.6-.3V0a.5.5 0 000-.1 30.5 30.5 0 013.6 8.7z" fill="#ffdc00"/>
  <path d="M31.2 49l1-.2a29.6 29.6 0 01-3.5 8.7V49l2.5-.1z" fill="#ffdc00"/>
  <path d="M28.7 47.2V10.3c23.2 0 23.2 36.9 0 36.9z" fill="#ffdc00"/>
  <path d="M41.8 44.3a31.6 31.6 0 011.3 9.4 31.1 31.1 0 01-7.4-5.8 19.8 19.8 0 003.2-1.5 20.8 20.8 0 003-2z" fill="#ffdc00"/>
  <path d="M41.8 13.2a20.1 20.1 0 00-6-3.6A30.8 30.8 0 0143 4a29.7 29.7 0 01-1.3 9.3z" fill="#ffdc00"/>
  <path d="M53.6 43.1a29.7 29.7 0 01-9.3-1.3 20 20 0 003.5-6 30 30 0 015.8 7.3z" fill="#ffdc00"/>
  <path d="M46.4 18.6a23.3 23.3 0 00-2-3 31.2 31.2 0 019.3-1.2 31.7 31.7 0 01-5.8 7.4 19.1 19.1 0 00-1.5-3.2z" fill="#ffdc00"/>
  <path d="M49 28.8a24.5 24.5 0 000-2.5l-.2-1a30 30 0 018.7 3.5 30.3 30.3 0 01-8.7 3.5 19.3 19.3 0 00.3-3.5z" fill="#ffdc00"/>
  <path d="M45.1 28.7h-2a14.3 14.3 0 00-14.4-14.3v-2a16.4 16.4 0 0116.4 16.3z" fill="#fff"/>
  <path d="M82 38.1h-2.1a14.2 14.2 0 00-14.2-14.2h-1.3l-.2-2h1.5A16.3 16.3 0 0182 38z" fill="#fff"/>
  </g>
  <g id="moon" class="moon-svg">
    <path d="M49.8 56.8C33.3 67 9 56.3 6.6 35.8a28.5 28.5 0 0144-27.1 29.2 29.2 0 013.7 2.8 23.3 23.3 0 00-30.6 20.8q2.7 25.4 26.1 24.5z" fill="#ffdc64"/>
    <path d="M27.6 20.8a23.2 23.2 0 00-3.9 11.5l-17 3.5a28.5 28.5 0 0144-27.1 29.2 29.2 0 013.6 2.8 23.3 23.3 0 00-26.7 9.3z" fill="#ffe664"/>
    <path d="M21 53.5Q3 39 14 18.5l1.8 1.3q-10 18.6 6.5 31.8z" fill="#fff"/>
  </g>
  <g id="star">
  <path fill="#ffe664" d="M99.5 25.5l9 1.5-9 1.4-1.5 9-1.4-9-9-1.4 9-1.5 1.5-9 1.4 9z"/>
  <path fill="#ffe664" d="M83.6 13.8l6 1-6 1-1 6-1-6-6-1 6-1 1-6 1 6z"/>
  </g>
  <g>
    <path d="M106.1 54.6a16 16 0 01-16 16H22.7c-22.7 0-12.5-37 6.8-26-2.1-6 9.1-15.7 14.8-8a21.4 21.4 0 0119.9-20c12.5-1 23.5 9.8 22.8 22.3 9-1.7 19 6.5 19 15.7z" fill="#00aac8"/>
    <path d="M106.1 54.6a16 16 0 01-16 16H64.2v-54c12.5-1 23.5 9.8 22.8 22.3 9-1.7 19 6.5 19 15.7z" fill="#00b4d2"/>
  </g> 
  <g>
    <path d="M84.5 81a10.1 10.1 0 01-20.2 0c0-5.6 10.1-19.8 10.1-19.8S84.5 75.4 84.5 81z" fill="#96dcf0"/>
    <path d="M84.5 81a10.1 10.1 0 01-10.1 10.1v-30s10.1 14.3 10.1 20z" fill="#a0e6fa"/>
    <path d="M74.4 88.3V87a6 6 0 006-5.9h1.3a7.3 7.3 0 01-7.3 7.3z" fill="#fff"/>
  </g>
   <g>
    <path d="M58.1 71a5 5 0 01-10 0c0-2.7 5-9.8 5-9.8s5 7 5 9.8z" fill="#96dcf0"/>
    <path d="M58.1 71a5 5 0 01-5 5V61.2s5 7 5 9.8z" fill="#a0e6fa"/>
  </g>
</svg>
